<?xml version="1.0" encoding="UTF-8"?>
<svg version="1.1" xmlns="http://www.w3.org/2000/svg" width="512" height="512">
<path d="M0 0 C0.97976807 0.33499512 1.95953613 0.66999023 2.96899414 1.01513672 C6.17259362 2.11311112 9.37141108 3.2243577 12.5703125 4.3359375 C14.82152495 5.11059714 17.07299348 5.88451297 19.32470703 6.65771484 C26.11976264 8.9948712 32.90847669 11.35003188 39.6953125 13.7109375 C41.17572021 14.22575684 41.17572021 14.22575684 42.68603516 14.75097656 C50.74259747 17.55385942 58.79664566 20.36389698 66.84716797 23.18408203 C79.44075277 27.59332893 92.06098407 31.91995461 104.6953125 36.2109375 C120.10088248 41.44326839 135.47631235 46.75534842 150.83126831 52.13433838 C167.20916896 57.8699586 183.62685494 63.48487203 200.0625 69.05273438 C200.96326767 69.35841339 201.86403534 69.66409241 202.792099 69.97903442 C204.4802753 70.55182359 206.1688633 71.12340125 207.85792542 71.693573 C213.47073421 73.59864836 213.47073421 73.59864836 215.6953125 74.7109375 C215.6953125 75.3709375 215.6953125 76.0309375 215.6953125 76.7109375 C214.2103125 77.2059375 214.2103125 77.2059375 212.6953125 77.7109375 C212.1422294 88.68668975 211.77609339 99.66095032 211.5703125 110.6484375 C211.55505146 111.46194923 211.53979042 112.27546097 211.52406693 113.11362457 C210.98843684 145.58176743 217.05223357 171.42477964 231.6953125 200.7109375 C232.2975016 205.30739355 232.76338441 209.82127182 230.42578125 213.95703125 C228.35983847 216.37483777 226.55269348 218.28224701 223.6953125 219.7109375 C219.22004728 220.01687432 214.74130274 220.06734802 210.25708008 220.1159668 C208.76628368 220.13748812 207.27561165 220.17152238 205.78540039 220.21850586 C191.81630748 220.65460353 191.81630748 220.65460353 187.23828125 216.80859375 C183.60208432 212.88474757 183.15754938 209.59992927 183.20898438 204.33984375 C184.31252174 196.10541633 187.90886989 188.39357049 190.9453125 180.7109375 C191.63582179 178.92774348 192.32463704 177.1438925 193.01171875 175.359375 C194.28536195 172.05435055 195.57036719 168.75417206 196.86425781 165.45703125 C197.159151 164.68192703 197.45404419 163.90682281 197.75787354 163.10823059 C198.39786536 161.47159287 199.07816606 159.8502944 199.79241943 158.24467468 C203.19788312 150.11275069 203.29978463 142.21424752 203.3046875 133.54296875 C203.31970011 132.01167581 203.33643362 130.48039887 203.35479736 128.94914246 C203.39813824 124.95603616 203.41839519 120.96314812 203.43353271 116.96984863 C203.45322509 112.8801602 203.49518061 108.79070343 203.53515625 104.70117188 C203.61009706 96.7044883 203.66060585 88.70789654 203.6953125 80.7109375 C198.64245548 82.47687755 193.58983756 84.24349977 188.53741455 86.01068115 C186.72980516 86.64285921 184.92214748 87.27489918 183.11444092 87.90679932 C173.24893949 91.35564981 163.38687625 94.81342263 153.5390625 98.3125 C152.75095184 98.59218628 151.96284119 98.87187256 151.15084839 99.16003418 C147.41059352 100.48743464 143.67143634 101.81777491 139.93408203 103.15332031 C138.59672997 103.62839679 137.25933043 104.10333962 135.921875 104.578125 C134.76252441 104.99175293 133.60317383 105.40538086 132.40869141 105.83154297 C129.6953125 106.7109375 129.6953125 106.7109375 127.6953125 106.7109375 C127.70641556 107.83988937 127.71751862 108.96884125 127.72895813 110.13200378 C127.83030657 120.77012963 127.90526479 131.40815756 127.95437336 142.04665661 C127.98046947 147.51609095 128.01586838 152.98513563 128.07250977 158.4543457 C128.12682813 163.73226566 128.15673293 169.00981077 128.16969872 174.28798866 C128.17893885 176.30187189 128.1969828 178.31573455 128.22396278 180.32945824 C128.26025063 183.15002174 128.26525795 185.96903563 128.26293945 188.78979492 C128.28091583 189.62273575 128.29889221 190.45567657 128.31741333 191.31385803 C128.31054001 192.08641937 128.30366669 192.85898071 128.29658508 193.654953 C128.30119405 194.32140933 128.30580301 194.98786566 128.31055164 195.67451763 C127.6953125 197.7109375 127.6953125 197.7109375 122.6953125 202.7109375 C134.9053125 203.0409375 147.1153125 203.3709375 159.6953125 203.7109375 C159.6953125 211.6309375 159.6953125 219.5509375 159.6953125 227.7109375 C154.4153125 227.7109375 149.1353125 227.7109375 143.6953125 227.7109375 C143.6953125 243.5509375 143.6953125 259.3909375 143.6953125 275.7109375 C148.9753125 275.7109375 154.2553125 275.7109375 159.6953125 275.7109375 C159.6953125 283.6309375 159.6953125 291.5509375 159.6953125 299.7109375 C170.2553125 299.7109375 180.8153125 299.7109375 191.6953125 299.7109375 C191.6953125 307.6309375 191.6953125 315.5509375 191.6953125 323.7109375 C186.4153125 323.7109375 181.1353125 323.7109375 175.6953125 323.7109375 C175.6953125 339.5509375 175.6953125 355.3909375 175.6953125 371.7109375 C180.9753125 371.7109375 186.2553125 371.7109375 191.6953125 371.7109375 C191.6953125 379.6309375 191.6953125 387.5509375 191.6953125 395.7109375 C181.1353125 395.7109375 170.5753125 395.7109375 159.6953125 395.7109375 C159.6953125 403.6309375 159.6953125 411.5509375 159.6953125 419.7109375 C154.4153125 419.7109375 149.1353125 419.7109375 143.6953125 419.7109375 C143.6953125 435.5509375 143.6953125 451.3909375 143.6953125 467.7109375 C148.9753125 467.7109375 154.2553125 467.7109375 159.6953125 467.7109375 C159.6953125 475.6309375 159.6953125 483.5509375 159.6953125 491.7109375 C115.82123991 491.80222384 71.94717987 491.87299477 28.07303093 491.91519882 C22.89113505 491.92020153 17.70923935 491.92537883 12.52734375 491.93066406 C11.49573876 491.9317133 10.46413378 491.93276255 9.40126804 491.93384358 C-7.29369232 491.95124012 -23.98859748 491.98277369 -40.68352512 492.01954868 C-57.81908766 492.05697898 -74.95462133 492.07917777 -92.09022307 492.08729148 C-102.66045422 492.09277491 -113.23052933 492.11008249 -123.80071244 492.14260337 C-131.05296514 492.16377702 -138.30513738 492.17013109 -145.55741873 492.16494301 C-149.73916256 492.16238567 -153.92063407 492.16625526 -158.10232925 492.1877594 C-161.93717743 492.20733508 -165.77157216 492.20813688 -169.60644194 492.19453308 C-171.63759379 492.19206323 -173.66874091 492.20921612 -175.69981408 492.22726274 C-190.4493991 492.1316936 -201.23211376 487.33624002 -212.0546875 477.4609375 C-220.69029116 468.37726006 -224.89409572 456.24008321 -224.7421875 443.8984375 C-224.73388916 443.0233252 -224.72559082 442.14821289 -224.71704102 441.24658203 C-224.36498738 427.69314337 -219.12424195 417.80374147 -209.9921875 407.9609375 C-198.85592169 397.42125736 -186.52211164 395.29093742 -171.6796875 395.0234375 C-170.38933594 394.98927734 -169.09898437 394.95511719 -167.76953125 394.91992188 C-164.61467033 394.83812918 -161.4600634 394.76875518 -158.3046875 394.7109375 C-158.90071777 394.45481689 -159.49674805 394.19869629 -160.11083984 393.93481445 C-174.49098823 387.66740562 -184.09795503 379.44417254 -190.12719727 364.69946289 C-192.2189474 359.0330379 -192.81624792 353.91540958 -192.7421875 347.8984375 C-192.73388916 347.0233252 -192.72559082 346.14821289 -192.71704102 345.24658203 C-192.34910918 331.08186113 -186.46751365 320.03540363 -176.2578125 310.30859375 C-170.77834482 305.82638919 -165.00562295 302.88279812 -158.3046875 300.7109375 C-159.09004883 300.7015918 -159.87541016 300.69224609 -160.68457031 300.68261719 C-164.30853454 300.62830565 -167.93129081 300.54477867 -171.5546875 300.4609375 C-173.40707031 300.43966797 -173.40707031 300.43966797 -175.296875 300.41796875 C-190.74563448 300.01142245 -202.99042267 294.99551796 -213.7109375 283.71875 C-221.09754329 274.41307505 -224.88728019 263.68636189 -224.7421875 251.8984375 C-224.73388916 251.0233252 -224.72559082 250.14821289 -224.71704102 249.24658203 C-224.36498738 235.69314337 -219.12424195 225.80374147 -209.9921875 215.9609375 C-198.41589868 205.00480701 -185.42446109 203.26677966 -170.1796875 203.0234375 C-168.7317414 202.99019053 -167.28382341 202.95569433 -165.8359375 202.91992188 C-162.32572744 202.83587401 -158.81544058 202.76867385 -155.3046875 202.7109375 C-156.11798019 202.06993607 -156.93127289 201.42893463 -157.76921082 200.76850891 C-161.17387041 196.66277609 -160.98382544 193.95668928 -160.87231445 188.78979492 C-160.87304459 187.90148987 -160.87377472 187.01318481 -160.87452698 186.09796143 C-160.87105144 183.17014904 -160.832192 180.24393971 -160.79296875 177.31640625 C-160.78364051 175.28331878 -160.77652445 173.25022005 -160.77153015 171.21711731 C-160.75246137 165.87225178 -160.70336109 160.52806821 -160.64801025 155.18347168 C-160.5968155 149.727226 -160.57401559 144.27086987 -160.54882812 138.81445312 C-160.49524265 128.11298202 -160.40993087 117.41201652 -160.3046875 106.7109375 C-160.9174353 106.53094711 -161.53018311 106.35095673 -162.16149902 106.16551208 C-168.05628621 104.41792156 -173.89361136 102.54765267 -179.7109375 100.55859375 C-180.58244446 100.26202881 -181.45395142 99.96546387 -182.35186768 99.65991211 C-185.17020893 98.69989258 -187.98751134 97.73687015 -190.8046875 96.7734375 C-191.76669067 96.44511932 -192.72869385 96.11680115 -193.71984863 95.77853394 C-211.96079153 89.55198917 -230.14908439 83.18175252 -248.3046875 76.7109375 C-248.3046875 76.0509375 -248.3046875 75.3909375 -248.3046875 74.7109375 C-219.81095824 64.85933668 -191.31298675 55.02029008 -162.8046875 45.2109375 C-145.66620319 39.31370403 -128.52916511 33.41236588 -111.39892578 27.49121094 C-106.91265806 25.94065869 -102.42530287 24.39331777 -97.93701172 22.84863281 C-87.06444968 19.10377348 -76.20326653 15.33051271 -65.36558533 11.48597717 C-60.6750462 9.82253412 -55.98017296 8.17148118 -51.28424549 6.52331829 C-48.05947755 5.39050056 -44.8374679 4.2508963 -41.6210022 3.09469604 C-38.06550717 1.81979925 -34.50268493 0.56780703 -30.9375 -0.6796875 C-29.89004105 -1.06194992 -28.84258209 -1.44421234 -27.76338196 -1.83805847 C-17.36075151 -5.42728258 -10.14385322 -3.55389355 0 0 Z " fill="#424653" transform="translate(272.3046875,12.2890625)"/>
<path d="M0 0 C1.43581322 -0.00131024 2.87162573 -0.00394068 4.30743444 -0.0077675 C8.22987866 -0.01444154 12.1520748 -0.00252261 16.07448745 0.01256669 C20.31293302 0.02556755 24.55136552 0.02113473 28.78982544 0.01885986 C36.12559934 0.01728968 43.46129295 0.02667216 50.79704666 0.04357338 C61.40319632 0.06799348 72.0093073 0.07577173 82.61548202 0.07953735 C99.82484325 0.08609712 117.03416173 0.10604538 134.24349976 0.13444519 C150.95703925 0.16199806 167.67056712 0.18322563 184.38412476 0.19596863 C185.41499799 0.1967568 186.44587123 0.19754497 187.50798304 0.19835702 C192.67976528 0.20227224 197.8515476 0.20606334 203.02332997 0.20979273 C245.90290213 0.24087384 288.78242658 0.2939203 331.66195679 0.36076355 C331.66195679 8.28076355 331.66195679 16.20076355 331.66195679 24.36076355 C326.38195679 24.36076355 321.10195679 24.36076355 315.66195679 24.36076355 C315.66195679 40.20076355 315.66195679 56.04076355 315.66195679 72.36076355 C320.94195679 72.36076355 326.22195679 72.36076355 331.66195679 72.36076355 C331.66195679 80.28076355 331.66195679 88.20076355 331.66195679 96.36076355 C321.10195679 96.36076355 310.54195679 96.36076355 299.66195679 96.36076355 C299.66195679 104.28076355 299.66195679 112.20076355 299.66195679 120.36076355 C294.38195679 120.36076355 289.10195679 120.36076355 283.66195679 120.36076355 C283.66195679 136.20076355 283.66195679 152.04076355 283.66195679 168.36076355 C288.94195679 168.36076355 294.22195679 168.36076355 299.66195679 168.36076355 C299.66195679 176.28076355 299.66195679 184.20076355 299.66195679 192.36076355 C255.78788419 192.45204989 211.91382416 192.52282082 168.03967522 192.56502487 C162.85777934 192.57002758 157.67588364 192.57520488 152.49398804 192.58049011 C151.46238305 192.58153935 150.43077807 192.5825886 149.36791232 192.58366963 C132.67295196 192.60106617 115.9780468 192.63259974 99.28311917 192.66937473 C82.14755663 192.70680502 65.01202296 192.72900382 47.87642121 192.73711753 C37.30619007 192.74260096 26.73611496 192.75990854 16.16593185 192.79242942 C8.91367915 192.81360307 1.6615069 192.81995714 -5.59077445 192.81476906 C-9.77251827 192.81221172 -13.95398978 192.81608131 -18.13568497 192.83758545 C-21.97053315 192.85716113 -25.80492787 192.85796293 -29.63979766 192.84435913 C-31.6709495 192.84188928 -33.70209662 192.85904217 -35.73316979 192.87708879 C-50.48275481 192.78151965 -61.26546947 187.98606607 -72.08804321 178.11076355 C-80.72364687 169.02708611 -84.92745143 156.88990926 -84.77554321 144.54826355 C-84.7630957 143.23559509 -84.7630957 143.23559509 -84.75039673 141.89640808 C-84.39834309 128.34296942 -79.15759766 118.45356752 -70.02554321 108.61076355 C-58.88927741 98.07108341 -46.55546735 95.94076347 -31.71304321 95.67326355 C-30.42269165 95.63910339 -29.13234009 95.60494324 -27.80288696 95.56974792 C-24.64802605 95.48795523 -21.49341912 95.41858123 -18.33804321 95.36076355 C-18.93407349 95.10464294 -19.53010376 94.84852234 -20.14419556 94.5846405 C-34.52434395 88.31723167 -44.13131074 80.09399859 -50.16055298 65.34928894 C-52.25230311 59.68286395 -52.84960364 54.56523563 -52.77554321 48.54826355 C-52.76724487 47.67315125 -52.75894653 46.79803894 -52.75039673 45.89640808 C-52.39834309 32.34296942 -47.15759766 22.45356752 -38.02554321 12.61076355 C-26.94643064 2.12517486 -14.78222184 -0.09807221 0 0 Z " fill="#545EA2" transform="translate(132.33804321289063,311.6392364501953)"/>
<path d="M0 0 C1.43581322 -0.00131024 2.87162573 -0.00394068 4.30743444 -0.0077675 C8.22987866 -0.01444154 12.1520748 -0.00252261 16.07448745 0.01256669 C20.31293302 0.02556755 24.55136552 0.02113473 28.78982544 0.01885986 C36.12559934 0.01728968 43.46129295 0.02667216 50.79704666 0.04357338 C61.40319632 0.06799348 72.0093073 0.07577173 82.61548202 0.07953735 C99.82484325 0.08609712 117.03416173 0.10604538 134.24349976 0.13444519 C150.95703925 0.16199806 167.67056712 0.18322563 184.38412476 0.19596863 C185.41499799 0.1967568 186.44587123 0.19754497 187.50798304 0.19835702 C192.67976528 0.20227224 197.8515476 0.20606334 203.02332997 0.20979273 C245.90290213 0.24087384 288.78242658 0.2939203 331.66195679 0.36076355 C331.66195679 8.28076355 331.66195679 16.20076355 331.66195679 24.36076355 C326.38195679 24.36076355 321.10195679 24.36076355 315.66195679 24.36076355 C315.66195679 40.20076355 315.66195679 56.04076355 315.66195679 72.36076355 C320.94195679 72.36076355 326.22195679 72.36076355 331.66195679 72.36076355 C331.66195679 80.28076355 331.66195679 88.20076355 331.66195679 96.36076355 C287.78788419 96.45204989 243.91382416 96.52282082 200.03967522 96.56502487 C194.85777934 96.57002758 189.67588364 96.57520488 184.49398804 96.58049011 C183.46238305 96.58153935 182.43077807 96.5825886 181.36791232 96.58366963 C164.67295196 96.60106617 147.9780468 96.63259974 131.28311917 96.66937473 C114.14755663 96.70680502 97.01202296 96.72900382 79.87642121 96.73711753 C69.30619007 96.74260096 58.73611496 96.75990854 48.16593185 96.79242942 C40.91367915 96.81360307 33.6615069 96.81995714 26.40922555 96.81476906 C22.22748173 96.81221172 18.04601022 96.81608131 13.86431503 96.83758545 C10.02946685 96.85716113 6.19507213 96.85796293 2.36020234 96.84435913 C0.3290505 96.84188928 -1.70209662 96.85904217 -3.73316979 96.87708879 C-18.48275481 96.78151965 -29.26546947 91.98606607 -40.08804321 82.11076355 C-48.72364687 73.02708611 -52.92745143 60.88990926 -52.77554321 48.54826355 C-52.7630957 47.23559509 -52.7630957 47.23559509 -52.75039673 45.89640808 C-52.39834309 32.34296942 -47.15759766 22.45356752 -38.02554321 12.61076355 C-26.94643064 2.12517486 -14.78222184 -0.09807221 0 0 Z " fill="#FBC268" transform="translate(132.33804321289063,311.6392364501953)"/>
<path d="M0 0 C1.11618269 -0.0039821 2.23236538 -0.00796419 3.38237178 -0.01206696 C4.59832534 -0.00624128 5.81427891 -0.00041559 7.06707954 0.00558662 C8.36669219 0.00387777 9.66630484 0.00216892 11.00529969 0.00040829 C14.60608727 -0.00405861 18.20675562 0.00392937 21.80752802 0.01396441 C25.69293936 0.0226061 29.57834404 0.01967824 33.46376228 0.01815987 C40.19335585 0.01711147 46.92291062 0.02338334 53.65249443 0.03463554 C63.38232215 0.05089371 73.11213111 0.05609888 82.84197094 0.05861153 C98.62820959 0.06298813 114.41442756 0.0762963 130.20065498 0.09521675 C145.53496383 0.11357644 160.86926705 0.12773251 176.20358467 0.13623238 C177.62153656 0.13702055 177.62153656 0.13702055 179.06813394 0.13782464 C183.81046068 0.14043473 188.55278747 0.14296214 193.29511428 0.14544845 C232.63376022 0.16617987 271.97238042 0.20195512 311.31100655 0.24609566 C311.31100655 16.08609566 311.31100655 31.92609566 311.31100655 48.24609566 C271.08029413 48.3365309 230.84960845 48.40813937 190.61881483 48.45035698 C185.86866958 48.45535977 181.11852454 48.46053706 176.36837959 48.46582222 C175.4227155 48.46687146 174.47705142 48.4679207 173.50273084 48.46900174 C158.1928111 48.48640462 142.88295146 48.51794167 127.57306737 48.55470684 C111.86246526 48.5921195 96.15189462 48.6143322 80.44124979 48.62244964 C70.74775912 48.62793673 61.05443836 48.64526418 51.36099999 48.67776152 C44.71287951 48.69891341 38.06484681 48.70529417 31.41669513 48.70010117 C27.58163401 48.69754043 23.7468697 48.70145214 19.91186142 48.72291756 C15.75032846 48.74604003 11.5894258 48.73803624 7.42784309 48.72711372 C5.61702054 48.74459077 5.61702054 48.74459077 3.76961571 48.76242089 C-4.44210751 48.70414044 -10.85415403 47.46618983 -17.2475872 42.09765816 C-22.81622918 35.49864375 -25.23853402 30.56088819 -24.9897747 21.82812691 C-24.05596024 13.81187546 -20.03340459 9.06143755 -14.10305595 3.87500191 C-9.66000451 0.87702059 -5.29750017 -0.00418775 0 0 Z " fill="#C6B6A9" transform="translate(104.68899345397949,431.75390434265137)"/>
<path d="M0 0 C1.07243454 -0.01007584 1.07243454 -0.01007584 2.16653442 -0.02035522 C4.52328545 -0.03929344 6.87974989 -0.04326023 9.23657227 -0.04541016 C10.89925751 -0.05185138 12.56194166 -0.05858069 14.22462463 -0.06558228 C17.71732189 -0.07755218 21.2099204 -0.08126444 24.70263672 -0.08007812 C28.23930621 -0.07991694 31.77545026 -0.0935802 35.31201172 -0.12109375 C53.9033735 -0.26360003 71.61537785 -0.06079443 89.88311768 3.76327515 C107.18009936 7.10100107 124.70918878 7.7566385 142.27490234 7.62670898 C145.68098631 7.60300641 149.08628506 7.6062009 152.49243164 7.61279297 C171.26158452 7.59373011 189.76423851 6.80562416 208.24487305 3.37683105 C228.29262275 -0.29134012 247.96312075 -0.30490388 268.29260254 -0.05279541 C273.80474055 0.00875391 279.31717975 0.03054406 284.82956696 0.05947113 C293.09213411 0.10704577 301.35280826 0.20318411 309.61547852 0.29052734 C309.61547852 16.13052734 309.61547852 31.97052734 309.61547852 48.29052734 C269.3847661 48.38096259 229.15408042 48.45257106 188.9232868 48.49478866 C184.17314155 48.49979146 179.42299651 48.50496875 174.67285156 48.51025391 C173.72718747 48.51130315 172.78152338 48.51235239 171.80720281 48.51343343 C156.49728307 48.5308363 141.18742343 48.56237336 125.87753934 48.59913853 C110.16693723 48.63655119 94.45636659 48.65876389 78.74572176 48.66688132 C69.05223109 48.67236842 59.35891033 48.68969586 49.66547196 48.72219321 C43.01735148 48.7433451 36.36931878 48.74972586 29.7211671 48.74453285 C25.88610598 48.74197212 22.05134167 48.74588383 18.21633339 48.76734924 C14.05480043 48.79047171 9.89389777 48.78246793 5.73231506 48.77154541 C3.92149251 48.78902246 3.92149251 48.78902246 2.07408768 48.80685258 C-6.13763554 48.74857212 -12.54968206 47.51062151 -18.94311523 42.14208984 C-24.51175721 35.54307544 -26.93406205 30.60531988 -26.68530273 21.87255859 C-25.75148827 13.85630714 -21.72893262 9.10586924 -15.79858398 3.91943359 C-10.77723003 0.53123845 -5.95577866 0.0353287 0 0 Z " fill="#C6B6A9" transform="translate(106.384521484375,239.70947265625)"/>
<path d="M0 0 C1.11618269 -0.0039821 2.23236538 -0.00796419 3.38237178 -0.01206696 C4.59832534 -0.00624128 5.81427891 -0.00041559 7.06707954 0.00558662 C8.36669219 0.00387777 9.66630484 0.00216892 11.00529969 0.00040829 C14.60608727 -0.00405861 18.20675562 0.00392937 21.80752802 0.01396441 C25.69293936 0.0226061 29.57834404 0.01967824 33.46376228 0.01815987 C40.19335585 0.01711147 46.92291062 0.02338334 53.65249443 0.03463554 C63.38232215 0.05089371 73.11213111 0.05609888 82.84197094 0.05861153 C98.62820959 0.06298813 114.41442756 0.0762963 130.20065498 0.09521675 C145.53496383 0.11357644 160.86926705 0.12773251 176.20358467 0.13623238 C177.62153656 0.13702055 177.62153656 0.13702055 179.06813394 0.13782464 C183.81046068 0.14043473 188.55278747 0.14296214 193.29511428 0.14544845 C232.63376022 0.16617987 271.97238042 0.20195512 311.31100655 0.24609566 C311.31100655 16.08609566 311.31100655 31.92609566 311.31100655 48.24609566 C290.19100655 48.24609566 269.07100655 48.24609566 247.31100655 48.24609566 C247.31100655 40.32609566 247.31100655 32.40609566 247.31100655 24.24609566 C226.19100655 24.24609566 205.07100655 24.24609566 183.31100655 24.24609566 C183.31100655 32.16609566 183.31100655 40.08609566 183.31100655 48.24609566 C158.82393567 48.33873692 134.33690708 48.41009739 109.84969616 48.45334435 C98.47956116 48.47395941 87.10953712 48.50205996 75.73947334 48.54785347 C65.82799197 48.5877534 55.91659098 48.61353614 46.00503153 48.62244964 C40.75812194 48.627659 35.51144229 48.63988115 30.26460648 48.66901588 C25.32260179 48.69623472 20.38092102 48.70452754 15.4388485 48.69852638 C13.62848397 48.69962372 11.81810823 48.70753896 10.00780869 48.72291756 C-9.08215599 48.8770866 -9.08215599 48.8770866 -17.2475872 42.13281441 C-22.76327393 35.6768235 -25.26675721 30.15677196 -24.9897747 21.57031441 C-23.97272155 13.71126735 -19.92227693 8.96424994 -14.10305595 3.87500191 C-9.66000451 0.87702059 -5.29750017 -0.00418775 0 0 Z " fill="#C7B7A9" transform="translate(136.6889934539795,335.75390434265137)"/>
<path d="M0 0 C-1 2 -1 2 -2.79296875 2.60546875 C-3.58316406 2.79753906 -4.37335938 2.98960938 -5.1875 3.1875 C-16.00134336 6.27052984 -25.47272858 11.73405415 -34 19 C-34.99 19.721875 -35.98 20.44375 -37 21.1875 C-48.62710215 31.14441068 -57.20474318 48.0839313 -60 63 C-60.19335938 64.02673828 -60.19335938 64.02673828 -60.390625 65.07421875 C-60.72591509 67.39036741 -60.88427149 69.66160334 -61 72 C-61.06445312 73.24652344 -61.12890625 74.49304688 -61.1953125 75.77734375 C-61.93049501 96.92552028 -55.00241298 117.11936168 -40.4375 132.75 C-39.2309375 133.86375 -39.2309375 133.86375 -38 135 C-37.34064453 135.75796875 -37.34064453 135.75796875 -36.66796875 136.53125 C-27.89929267 146.29888918 -13.82655627 153.65971605 -1 156 C-1 156.66 -1 157.32 -1 158 C-6.42952791 159.12275406 -9.78435087 158.78439381 -14.9609375 156.859375 C-15.61506119 156.62181992 -16.26918488 156.38426483 -16.94313049 156.13951111 C-18.3534557 155.6256263 -19.76126723 155.10479965 -21.16671753 154.57772827 C-24.98386592 153.14695042 -28.81985924 151.76795104 -32.65234375 150.37890625 C-33.43805252 150.09235672 -34.22376129 149.80580719 -35.03327942 149.51057434 C-41.96732994 146.98808213 -48.95058331 144.63678758 -55.96087646 142.33627319 C-69.61109371 137.85595872 -83.18983939 133.18291198 -96.75 128.4375 C-97.66637238 128.11690613 -98.58274475 127.79631226 -99.52688599 127.46600342 C-103.14457709 126.20014996 -106.76211889 124.93387119 -110.37944031 123.66696167 C-118.37298439 120.86769874 -126.37111611 118.08205585 -134.375 115.3125 C-136.03740723 114.73423462 -136.03740723 114.73423462 -137.73339844 114.14428711 C-142.79681601 112.39490055 -147.86802753 110.71815231 -152.99609375 109.16796875 C-162.30085679 106.33611455 -171.48607281 103.14784105 -180.6875 100 C-181.6420105 99.67417938 -182.596521 99.34835876 -183.57995605 99.01266479 C-201.7657827 92.80402191 -219.89897651 86.45136236 -238 80 C-238 79.34 -238 78.68 -238 78 C-209.50627074 68.14839918 -181.00829925 58.30935258 -152.5 48.5 C-135.36151569 42.60276653 -118.22447761 36.70142838 -101.09423828 30.78027344 C-96.60797056 29.22972119 -92.12061537 27.68238027 -87.63232422 26.13769531 C-76.75976218 22.39283598 -65.89857903 18.61957521 -55.06089783 14.77503967 C-50.3703587 13.11159662 -45.67548546 11.46054368 -40.97955799 9.81238079 C-37.75479005 8.67956306 -34.5327804 7.5399588 -31.3163147 6.38375854 C-27.76081967 5.10886175 -24.19799743 3.85686953 -20.6328125 2.609375 C-19.58535355 2.22711258 -18.53789459 1.84485016 -17.45869446 1.45100403 C-11.09382639 -0.74506917 -6.63517829 -1.27602885 0 0 Z " fill="#393D48" transform="translate(262,9)"/>
<path d="M0 0 C5.28 0 10.56 0 16 0 C16 7.92 16 15.84 16 24 C13.43815492 24.00219984 13.43815492 24.00219984 10.8245554 24.00444412 C-29.71937813 24.04014772 -70.26323961 24.09639125 -110.80710804 24.17792095 C-115.79759322 24.18793838 -120.78807872 24.19778252 -125.77856445 24.20751953 C-126.77207838 24.2094609 -127.7655923 24.21140228 -128.78921271 24.21340248 C-144.87508037 24.24442177 -160.96093377 24.26140294 -177.0468257 24.27319422 C-193.553001 24.28560614 -210.05910144 24.31310848 -226.56522948 24.35461307 C-236.75002842 24.37974727 -246.93470321 24.39311733 -257.11953361 24.39142957 C-264.10409034 24.39139981 -271.08852062 24.40603084 -278.07302808 24.43216428 C-282.10247731 24.44680886 -286.13166723 24.45501441 -290.16113853 24.44580269 C-293.85340245 24.43750478 -297.54514575 24.44770014 -301.23733253 24.47233662 C-303.19908379 24.48069159 -305.1608886 24.46949395 -307.122621 24.45750165 C-315.33592458 24.53732448 -321.88182322 25.60370729 -328.33984375 30.9296875 C-333.29078675 36.95797507 -335.4708674 41.82282528 -335.24609375 49.703125 C-334.48634846 56.79408105 -331.24643671 62.26160962 -326 67 C-318.01628964 72.66812321 -307.94525238 71.57480708 -298.62866211 71.54589844 C-296.76528056 71.55464157 -294.90190651 71.56512992 -293.0385437 71.57722473 C-287.99992105 71.60501465 -282.96154424 71.60849096 -277.92285609 71.60750484 C-272.64973278 71.61063996 -267.37671921 71.63627067 -262.10365295 71.65948486 C-252.12727612 71.70000246 -242.15096459 71.72037563 -232.17451817 71.73345876 C-220.81291936 71.74934315 -209.45143144 71.78776488 -198.08989704 71.82805204 C-174.72663203 71.91039299 -151.36337803 71.96372201 -128 72 C-128 64.08 -128 56.16 -128 48 C-106.88 48 -85.76 48 -64 48 C-64 55.92 -64 63.84 -64 72 C-37.6 72 -11.2 72 16 72 C16 79.92 16 87.84 16 96 C-31.52 96 -79.04 96 -128 96 C-128 90.72 -128 85.44 -128 80 C-131.55931557 80.01332367 -131.55931557 80.01332367 -135.1905365 80.0269165 C-157.54152999 80.10866837 -179.89250376 80.16818928 -202.24361324 80.20724869 C-213.73481592 80.22786422 -225.22590881 80.25596566 -236.71704102 80.30175781 C-246.7339978 80.34165631 -256.75087507 80.36744015 -266.76790911 80.37635398 C-272.07070897 80.38156358 -277.37328135 80.39378728 -282.67600822 80.42292023 C-287.67054166 80.4501368 -292.66475461 80.45843233 -297.65935516 80.45243073 C-299.48907019 80.45352817 -301.3187963 80.46144474 -303.14844704 80.4768219 C-320.76600216 80.61758327 -320.76600216 80.61758327 -328 76 C-329.19689453 75.33097656 -329.19689453 75.33097656 -330.41796875 74.6484375 C-337.29026538 69.70281123 -342.12668288 62.51213844 -343.75 54.125 C-345.08149611 42.80728305 -342.83690064 34.81939803 -335.76953125 25.85546875 C-330.64129901 20.47818329 -323.96335073 16.36015037 -316.44942486 15.81492531 C-313.20097852 15.7396867 -309.95795116 15.73064286 -306.70863342 15.74171448 C-305.45887881 15.73803877 -304.2091242 15.73436307 -302.92149824 15.73057598 C-299.45965576 15.72060987 -295.99791479 15.72296445 -292.53606474 15.72730291 C-288.79979298 15.72978163 -285.06354772 15.72070766 -281.32728577 15.71292114 C-274.85472723 15.70088188 -268.38219331 15.69576851 -261.9096241 15.69503975 C-252.54377086 15.69371358 -243.17797732 15.67859745 -233.81214517 15.65954458 C-218.60629752 15.62870821 -203.40044836 15.60454002 -188.19458008 15.58666992 C-187.28468114 15.58559724 -186.3747822 15.58452456 -185.43731057 15.58341938 C-175.28517371 15.57159858 -165.13303625 15.56139302 -154.980896 15.55297852 C-151.29919432 15.54990456 -147.61749266 15.54681578 -143.93579102 15.54370117 C-143.02730453 15.54293583 -142.11881805 15.54217049 -141.18280167 15.54138196 C-126.0347366 15.52830062 -110.88671478 15.50366216 -95.73868173 15.46995777 C-86.39646086 15.44966875 -77.05433248 15.43937824 -67.71208941 15.44194698 C-61.31118484 15.44298204 -54.9103534 15.43334533 -48.50947434 15.41530795 C-44.81645352 15.40526371 -41.1235945 15.40013401 -37.43056488 15.40807533 C-33.42634707 15.41658346 -29.42254187 15.40202333 -25.41835022 15.38526917 C-23.66912886 15.39458689 -23.66912886 15.39458689 -21.8845697 15.40409285 C-14.65813164 15.34887407 -9.0918835 15.00831909 -3.6875 9.75 C-1.51312766 6.48288869 -1.51312766 6.48288869 0 0 Z " fill="#ED9B52" transform="translate(448,312)"/>
<path d="M0 0 C1.13976288 -0.00752289 1.13976288 -0.00752289 2.30255127 -0.01519775 C14.731763 -0.02012542 22.64257179 1.85224987 32.3125 9.75 C34.57857222 11.07298909 36.87736545 12.17657738 39.25 13.3125 C40.22839844 13.78816406 41.20679688 14.26382813 42.21484375 14.75390625 C43.25318359 15.24697266 43.25318359 15.24697266 44.3125 15.75 C44.3125 16.08 44.3125 16.41 44.3125 16.75 C43.7060817 16.75364563 43.09966339 16.75729126 42.47486877 16.76104736 C36.13105719 16.80304044 29.78795781 16.87250293 23.44458008 16.95751953 C21.08104597 16.98564722 18.71741922 17.00690231 16.35375977 17.02099609 C12.94499568 17.04253874 9.53733579 17.08924927 6.12890625 17.140625 C5.08166885 17.14185364 4.03443146 17.14308228 2.95545959 17.14434814 C-6.83196098 17.33727362 -15.74544891 20.60377094 -22.6875 27.75 C-28.62837853 36.76463742 -31.11326573 44.61830224 -29.2265625 55.37890625 C-26.74042111 64.723873 -22.19662511 71.36648023 -14.03125 76.55859375 C-7.15406421 80.05449653 -0.96853664 80.03408748 6.60386658 80.00828552 C8.47849849 80.01379908 8.47849849 80.01379908 10.39100176 80.01942402 C13.85284424 80.02939013 17.31458521 80.02703555 20.77643526 80.02269709 C24.51270702 80.02021837 28.24895228 80.02929234 31.98521423 80.03707886 C38.45777277 80.04911812 44.93030669 80.05423149 51.4028759 80.05496025 C60.76872914 80.05628642 70.13452268 80.07140255 79.50035483 80.09045542 C94.70620248 80.12129179 109.91205164 80.14545998 125.11791992 80.16333008 C126.48276833 80.1649391 126.48276833 80.1649391 127.87518943 80.16658062 C138.02732629 80.17840142 148.17946375 80.18860698 158.331604 80.19702148 C162.01330568 80.20009544 165.69500734 80.20318422 169.37670898 80.20629883 C170.28519547 80.20706417 171.19368195 80.20782951 172.12969833 80.20861804 C187.2777634 80.22169938 202.42578522 80.24633784 217.57381827 80.28004223 C226.91603914 80.30033125 236.25816752 80.31062176 245.60041059 80.30805302 C252.00131516 80.30701796 258.4021466 80.31665467 264.80302566 80.33469205 C268.49604648 80.34473629 272.1889055 80.34986599 275.88193512 80.34192467 C279.88615293 80.33341654 283.88995813 80.34797667 287.89414978 80.36473083 C289.06029735 80.35851902 290.22644492 80.3523072 291.4279303 80.34590715 C299.17211583 80.40508216 304.39515343 80.95949459 310.1875 86.5 C312.53760291 90.09427504 312.84389702 92.54254348 313.3125 96.75 C271.47673454 96.84159916 229.64098067 96.91206089 187.80513476 96.95426132 C182.86357926 96.95926401 177.92202396 96.96444132 172.98046875 96.96972656 C171.9967136 96.9707758 171.01295845 96.97182505 169.99939254 96.97290608 C154.08041392 96.99030093 138.16149321 97.02183356 122.24254891 97.05861118 C105.90251527 97.09604619 89.56251191 97.11824127 73.22243714 97.12635398 C63.1435541 97.13183644 53.06483476 97.14913868 42.98600212 97.18166587 C36.07014512 97.20284536 29.15437248 97.20919227 22.23848543 97.20400551 C18.25116194 97.20144907 14.26412407 97.20530733 10.27685165 97.2268219 C6.61963714 97.24641052 2.962898 97.24719126 -0.69433925 97.23359558 C-2.63005414 97.23112809 -4.56576416 97.24826943 -6.50139642 97.26632524 C-21.0416694 97.16763744 -31.78487507 92.22022887 -42.4375 82.5 C-51.07310366 73.41632256 -55.27690822 61.27914571 -55.125 48.9375 C-55.11255249 47.62483154 -55.11255249 47.62483154 -55.09985352 46.28564453 C-54.74779988 32.73220587 -49.50705445 22.84280397 -40.375 13 C-28.73978536 1.98810043 -15.37572506 0.0536232 0 0 Z " fill="#545EA2" transform="translate(102.6875,215.25)"/>
<path d="M0 0 C41.58 0 83.16 0 126 0 C126 7.92 126 15.84 126 24 C123.43815492 24.00219984 123.43815492 24.00219984 120.8245554 24.00444412 C80.28062187 24.04014772 39.73676039 24.09639125 -0.80710804 24.17792095 C-5.79759322 24.18793838 -10.78807872 24.19778252 -15.77856445 24.20751953 C-16.77207838 24.2094609 -17.7655923 24.21140228 -18.78921271 24.21340248 C-34.87508037 24.24442177 -50.96093377 24.26140294 -67.0468257 24.27319422 C-83.553001 24.28560614 -100.05910144 24.31310848 -116.56522948 24.35461307 C-126.75002842 24.37974727 -136.93470321 24.39311733 -147.11953361 24.39142957 C-154.10409034 24.39139981 -161.08852062 24.40603084 -168.07302808 24.43216428 C-172.10247731 24.44680886 -176.13166723 24.45501441 -180.16113853 24.44580269 C-183.85340245 24.43750478 -187.54514575 24.44770014 -191.23733253 24.47233662 C-193.19908379 24.48069159 -195.1608886 24.46949395 -197.122621 24.45750165 C-205.33592458 24.53732448 -211.88182322 25.60370729 -218.33984375 30.9296875 C-223.48861025 37.19884573 -225.52581797 42.23223514 -225.3046875 50.4140625 C-224.41624394 57.9544425 -220.84802068 62.74956934 -215.1953125 67.58984375 C-210.72241696 70.46300263 -206.30806516 71.24986893 -201.06112862 71.26171303 C-199.8892116 71.26917852 -198.71729458 71.27664401 -197.50986493 71.28433573 C-196.23165619 71.282401 -194.95344746 71.28046626 -193.63650513 71.2784729 C-192.25776494 71.28347792 -190.87902769 71.28935432 -189.50029457 71.29602563 C-185.7171115 71.31181475 -181.93400273 71.31525571 -178.15079069 71.31667423 C-174.06903694 71.32037018 -169.98732385 71.33552663 -165.90559387 71.34928894 C-158.83552603 71.37155947 -151.76547267 71.386574 -144.69537735 71.39665604 C-134.47321975 71.41124344 -124.25111255 71.43678045 -114.02898453 71.46498732 C-97.44414106 71.51045418 -80.85929032 71.54706944 -64.27441406 71.578125 C-48.16404954 71.60831097 -32.05370276 71.64266147 -15.94335938 71.68261719 C-14.95026619 71.68507874 -13.957173 71.68754028 -12.93398608 71.69007643 C-7.95191399 71.70245104 -2.96984211 71.71490757 2.01222968 71.72740483 C43.34146188 71.83097105 84.67071589 71.92002747 126 72 C126 79.92 126 87.84 126 96 C120.72 96 115.44 96 110 96 C109.62875 94.618125 109.2575 93.23625 108.875 91.8125 C107.22874826 86.8581405 105.34802329 84.83952541 101 82 C97.88903031 80.96993144 95.01814229 80.87423972 91.75403309 80.87250805 C90.68570014 80.8695004 89.61736719 80.86649275 88.51666051 80.86339396 C87.34382078 80.86514433 86.17098104 80.86689471 84.96260071 80.86869812 C83.71596608 80.86658241 82.46933145 80.86446669 81.18492001 80.86228687 C78.44574912 80.85769017 75.70660083 80.85626894 72.9674263 80.85725212 C68.51050681 80.85884488 64.05360975 80.85364274 59.59669495 80.84762573 C53.12520161 80.83951184 46.65371222 80.83456856 40.18221474 80.83133507 C29.95090196 80.82583758 19.71962251 80.80893891 9.48832703 80.78999329 C5.98766428 80.78363646 2.48700144 80.77732803 -1.01366138 80.77101612 C-1.88854205 80.76943236 -2.76342271 80.7678486 -3.66481492 80.76621684 C-13.62476679 80.74827861 -23.58472103 80.73205331 -33.54467773 80.71704102 C-34.45518305 80.71566514 -35.36568837 80.71428927 -36.30378477 80.71287171 C-51.05406214 80.69094828 -65.80433093 80.68018707 -80.55462172 80.67267027 C-95.70038651 80.66459621 -110.84607779 80.64129613 -125.99180061 80.6047166 C-135.33236616 80.5827029 -144.67278049 80.57302349 -154.01337067 80.57921693 C-160.4171356 80.58239415 -166.8207715 80.5710441 -173.22449651 80.54832252 C-176.91779239 80.53566877 -180.61080077 80.52946769 -184.30410767 80.54073906 C-188.31222228 80.55281375 -192.31960867 80.53396587 -196.3276825 80.51225281 C-198.07021169 80.52491661 -198.07021169 80.52491661 -199.84794348 80.53783625 C-206.78891228 80.46831633 -211.9324512 79.41070212 -218 76 C-219.19689453 75.33097656 -219.19689453 75.33097656 -220.41796875 74.6484375 C-227.29026538 69.70281123 -232.12668288 62.51213844 -233.75 54.125 C-235.08149611 42.80728305 -232.83690064 34.81939803 -225.76953125 25.85546875 C-220.11092469 19.92205127 -213.21338984 16.27038873 -205.00885582 15.7438736 C-203.46293662 15.73081028 -201.91690218 15.72855399 -200.37094116 15.73498535 C-199.51517443 15.73060408 -198.6594077 15.72622281 -197.77770865 15.72170877 C-194.91734467 15.70941149 -192.05716466 15.71119532 -189.19677734 15.71289062 C-187.14329253 15.70686512 -185.08981018 15.69994054 -183.03633118 15.69218445 C-178.61819103 15.67730498 -174.20009602 15.66854868 -169.78193283 15.66447449 C-162.79888134 15.65776059 -155.81592653 15.63600697 -148.83291626 15.61193848 C-132.75230818 15.55881255 -116.67167034 15.52541275 -100.59101105 15.49217987 C-85.84738207 15.46151262 -71.1037946 15.42671367 -56.3602196 15.37586927 C-49.41510185 15.35249027 -42.47005153 15.33877225 -35.52489829 15.33237457 C-31.21009526 15.32644758 -26.89534713 15.31236175 -22.58057213 15.29603004 C-20.57623315 15.29014097 -18.57188078 15.28768452 -16.56753349 15.28886986 C-13.83660205 15.29002472 -11.10598092 15.27904715 -8.37509155 15.26501465 C-7.57762744 15.26831362 -6.78016333 15.2716126 -5.95853364 15.27501154 C-0.66052674 15.24900386 -0.66052674 15.24900386 4 13 C4.77105754 11.15627965 4.77105754 11.15627965 4.875 9.0625 C4.95492187 8.37285156 5.03484375 7.68320312 5.1171875 6.97265625 C5.14705795 4.67417282 5.14705795 4.67417282 3 2 C2.01 1.34 1.02 0.68 0 0 Z " fill="#38406F" transform="translate(306,408)"/>
<path d="M0 0 C1.55260078 -0.00298657 1.55260078 -0.00298657 3.13656723 -0.00603348 C4.28246225 -0.00312064 5.42835726 -0.0002078 6.60897636 0.00279331 C7.81941671 0.00193889 9.02985706 0.00108446 10.27697742 0.00020415 C13.64734605 -0.0011626 17.01765715 0.00197945 20.38801885 0.00698221 C24.01855613 0.01128758 27.64909154 0.00984022 31.27963066 0.00907993 C37.57329673 0.00855475 43.86695245 0.01170093 50.16061592 0.01731777 C59.26027512 0.02543358 68.3599293 0.02804808 77.45959173 0.02930576 C92.22202576 0.03149616 106.98445427 0.0381559 121.7468853 0.04760838 C136.08998398 0.05678282 150.43308116 0.0638635 164.77618217 0.06811619 C166.10162004 0.06851027 166.10162004 0.06851027 167.45383443 0.06891232 C171.88657824 0.07021733 176.31932207 0.07148104 180.7520659 0.07272422 C217.5451022 0.08309644 254.33813163 0.100989 291.13116264 0.12304783 C291.13116264 8.04304783 291.13116264 15.96304783 291.13116264 24.12304783 C253.54170812 24.2586723 215.95231789 24.36609795 178.36266794 24.42943981 C173.92539168 24.43694409 169.48811591 24.44471002 165.05084038 24.45263767 C163.72576168 24.45499847 163.72576168 24.45499847 162.37391371 24.45740695 C148.06814283 24.48351851 133.76251654 24.53082796 119.45683145 24.58596461 C104.7790756 24.64206368 90.1013955 24.67539839 75.42353684 24.6875788 C66.36562221 24.69581367 57.30811625 24.72182698 48.25032742 24.77054663 C42.03997751 24.80225005 35.82983904 24.81185126 29.61941408 24.80405609 C26.03556996 24.80021098 22.45244018 24.80612536 18.86872292 24.83828068 C14.98230053 24.87289722 11.09680872 24.86097769 7.21024895 24.84457493 C6.07891814 24.86205198 4.94758734 24.87952903 3.78197378 24.89753568 C-2.46926858 24.82607391 -6.11747732 24.13396814 -10.66458648 19.70315039 C-13.39030875 16.1267189 -13.37126516 12.42957187 -12.86883736 8.12304783 C-9.39224026 2.71025357 -6.49869353 -0.0027467 0 0 Z " fill="#FBEDDF" transform="translate(124.86883735656738,455.8769521713257)"/>
<path d="M0 0 C1.55260078 -0.00298657 1.55260078 -0.00298657 3.13656723 -0.00603348 C4.28246225 -0.00312064 5.42835726 -0.0002078 6.60897636 0.00279331 C7.81941671 0.00193889 9.02985706 0.00108446 10.27697742 0.00020415 C13.64734605 -0.0011626 17.01765715 0.00197945 20.38801885 0.00698221 C24.01855613 0.01128758 27.64909154 0.00984022 31.27963066 0.00907993 C37.57329673 0.00855475 43.86695245 0.01170093 50.16061592 0.01731777 C59.26027512 0.02543358 68.3599293 0.02804808 77.45959173 0.02930576 C92.22202576 0.03149616 106.98445427 0.0381559 121.7468853 0.04760838 C136.08998398 0.05678282 150.43308116 0.0638635 164.77618217 0.06811619 C166.10162004 0.06851027 166.10162004 0.06851027 167.45383443 0.06891232 C171.88657824 0.07021733 176.31932207 0.07148104 180.7520659 0.07272422 C217.5451022 0.08309644 254.33813163 0.100989 291.13116264 0.12304783 C291.13116264 8.04304783 291.13116264 15.96304783 291.13116264 24.12304783 C253.54170812 24.2586723 215.95231789 24.36609795 178.36266794 24.42943981 C173.92539168 24.43694409 169.48811591 24.44471002 165.05084038 24.45263767 C163.72576168 24.45499847 163.72576168 24.45499847 162.37391371 24.45740695 C148.06814283 24.48351851 133.76251654 24.53082796 119.45683145 24.58596461 C104.7790756 24.64206368 90.1013955 24.67539839 75.42353684 24.6875788 C66.36562221 24.69581367 57.30811625 24.72182698 48.25032742 24.77054663 C42.03997751 24.80225005 35.82983904 24.81185126 29.61941408 24.80405609 C26.03556996 24.80021098 22.45244018 24.80612536 18.86872292 24.83828068 C14.98230053 24.87289722 11.09680872 24.86097769 7.21024895 24.84457493 C6.07891814 24.86205198 4.94758734 24.87952903 3.78197378 24.89753568 C-2.46926858 24.82607391 -6.11747732 24.13396814 -10.66458648 19.70315039 C-13.39030875 16.1267189 -13.37126516 12.42957187 -12.86883736 8.12304783 C-9.39224026 2.71025357 -6.49869353 -0.0027467 0 0 Z " fill="#FBEDDF" transform="translate(124.86883735656738,263.8769521713257)"/>
<path d="M0 0 C21.12 0 42.24 0 64 0 C64 7.92 64 15.84 64 24 C90.4 24 116.8 24 144 24 C144 31.92 144 39.84 144 48 C96.48 48 48.96 48 0 48 C0 32.16 0 16.32 0 0 Z " fill="#D64378" transform="translate(320,360)"/>
<path d="M0 0 C0.68774565 -0.00085442 1.37549129 -0.00170885 2.08407772 -0.00258917 C4.3995736 -0.00424253 6.7149978 0.00127506 9.03048706 0.00672913 C10.68593341 0.00701105 12.34137989 0.00685315 13.99682617 0.00628662 C18.50070721 0.00599887 23.0045618 0.01189204 27.50843668 0.01886058 C32.21165744 0.02509778 36.91487877 0.02569821 41.61810303 0.02688599 C50.52869967 0.02999822 59.43928408 0.03821015 68.34987533 0.04823548 C78.49241147 0.05939997 88.63494819 0.06490791 98.77748895 0.06993091 C119.64552007 0.08039285 140.51353948 0.09819085 161.38156128 0.12025452 C161.38156128 8.04025452 161.38156128 15.96025452 161.38156128 24.12025452 C139.59805874 24.25917851 117.81466298 24.36623735 96.03080654 24.43112755 C85.91604464 24.46205878 75.80156313 24.50422534 65.6869812 24.57289124 C56.87055796 24.63271563 48.05433779 24.671409 39.23771721 24.68478549 C34.5697513 24.69260413 29.90236633 24.71096418 25.23458672 24.75463486 C20.83909441 24.79542409 16.44442115 24.80791097 12.04875755 24.7989006 C10.43748266 24.80054844 8.8261798 24.81244648 7.21506882 24.83548737 C-6.46952285 25.02155994 -6.46952285 25.02155994 -11.06947327 21.2651825 C-13.81090571 18.38902404 -14.52386614 15.82279369 -15.05593872 11.87025452 C-14.47446142 6.8861634 -12.24562274 4.44673934 -8.61843872 1.12025452 C-5.72676906 -0.32558031 -3.2320437 -0.00240838 0 0 Z " fill="#FBEDDF" transform="translate(158.61843872070313,359.87974548339844)"/>
<path d="M0 0 C1.06191219 -0.00427212 2.12382437 -0.00854425 3.21791571 -0.01294583 C6.78207179 -0.02119245 10.34505544 0.00633863 13.90910339 0.03364563 C16.46153231 0.03505573 19.01396326 0.03426487 21.56639099 0.03143311 C27.06457287 0.03029391 32.56237609 0.04448999 38.06048012 0.0726223 C46.00971133 0.11326987 53.95879911 0.12628076 61.90812298 0.13256226 C74.80550379 0.1435035 87.70272643 0.176773 100.60002136 0.22407532 C113.12800811 0.26997536 125.65595188 0.30536506 138.18400574 0.32661438 C138.95632397 0.327928 139.72864221 0.32924161 140.52436403 0.33059504 C144.39888504 0.33712026 148.27340636 0.34343879 152.14792788 0.34965456 C184.28742882 0.40148226 216.42673535 0.48954281 248.56608582 0.60127258 C248.27237382 2.05769336 247.97052629 3.51247522 247.66520691 4.96650696 C247.41436844 6.1819519 247.41436844 6.1819519 247.15846252 7.42195129 C246.41958494 10.14024125 245.43595295 11.4151715 243.19108582 13.10127258 C242.60585144 13.56533508 242.02061707 14.02939758 241.41764832 14.50752258 C238.15283614 16.43610361 234.98577748 16.72655695 231.24598789 16.73828697 C229.95329388 16.74589879 229.95329388 16.74589879 228.63448483 16.75366437 C227.69237351 16.75416213 226.75026219 16.75465989 225.77960205 16.75517273 C224.27293642 16.76174611 224.27293642 16.76174611 222.73583311 16.76845229 C219.36031975 16.78183809 215.9848325 16.78801859 212.60929871 16.79414368 C210.19320559 16.80204456 207.77711364 16.8103135 205.36102295 16.81892395 C198.10566049 16.84287435 190.85029628 16.85806761 183.59490815 16.87098402 C181.54588958 16.87469713 179.49687169 16.87867023 177.4478538 16.88273668 C164.72303266 16.90796658 151.99821041 16.93001893 139.27336979 16.94246483 C136.32772887 16.94539448 133.38208798 16.94835616 130.43644714 16.95137024 C129.70432947 16.95211629 128.97221179 16.95286234 128.21790873 16.953631 C116.34892515 16.96629408 104.48009104 16.99953244 92.61117739 17.04117207 C80.42610189 17.08357083 68.241103 17.10715716 56.05595392 17.11238539 C49.21409113 17.11580109 42.37246229 17.12757521 35.53067207 17.16048813 C29.09810661 17.19138217 22.66583764 17.19691714 16.2332058 17.18510437 C13.86966558 17.1848828 11.50610695 17.19325622 9.14263153 17.21075821 C5.92110792 17.23332011 2.70108258 17.22521437 -0.52044678 17.20927429 C-1.46032737 17.22315638 -2.40020797 17.23703847 -3.36856979 17.25134122 C-7.88557151 17.19609681 -9.82227069 17.06796775 -13.5144434 14.25077248 C-15.43391418 11.60127258 -15.43391418 11.60127258 -16.05891418 8.60127258 C-14.22716462 -0.19112531 -7.4571541 -0.10935207 0 0 Z " fill="#FECE81" transform="translate(199.4339141845703,311.3987274169922)"/>
<path d="M0 0 C3.86356022 1.61958514 7.5200651 2.58052478 11.59692383 3.5078125 C11.59692383 3.8378125 11.59692383 4.1678125 11.59692383 4.5078125 C10.25507774 4.51328094 10.25507774 4.51328094 8.88612366 4.51885986 C0.42692491 4.55683606 -8.03189206 4.61379767 -16.49082088 4.69171524 C-20.8389473 4.73110737 -25.18687371 4.7633361 -29.53515625 4.77880859 C-33.73700102 4.79403001 -37.93829562 4.82857161 -42.13989449 4.87612152 C-43.73728192 4.89087908 -45.33474792 4.89885027 -46.93220329 4.89969635 C-56.55218794 4.90990938 -64.98666545 5.04085608 -72.74291992 11.4375 C-77.89168642 17.70665823 -79.92889414 22.74004764 -79.70776367 30.921875 C-78.81932011 38.462255 -75.25109685 43.25738184 -69.59838867 48.09765625 C-65.12549313 50.97081513 -60.71114134 51.75768143 -55.46420479 51.76952553 C-54.29228777 51.77699102 -53.12037075 51.78445651 -51.9129411 51.79214823 C-50.63473236 51.7902135 -49.35652363 51.78827876 -48.0395813 51.7862854 C-46.66084112 51.79129042 -45.28210387 51.79716682 -43.90337074 51.80383813 C-40.12018767 51.81962725 -36.3370789 51.82306821 -32.55386686 51.82448673 C-28.47211311 51.82818268 -24.39040002 51.84333913 -20.30867004 51.85710144 C-13.23860221 51.87937197 -6.16854884 51.8943865 0.90154648 51.90446854 C11.12370408 51.91905594 21.34581127 51.94459295 31.5679393 51.97279982 C48.15278277 52.01826668 64.7376335 52.05488194 81.32250977 52.0859375 C97.43287429 52.11612347 113.54322106 52.15047397 129.65356445 52.19042969 C130.64665764 52.19289124 131.63975083 52.19535278 132.66293775 52.19788893 C137.64500984 52.21026354 142.62708172 52.22272007 147.60915351 52.23521733 C188.93838571 52.33878355 230.26763972 52.42783997 271.59692383 52.5078125 C271.59692383 60.4278125 271.59692383 68.3478125 271.59692383 76.5078125 C266.31692383 76.5078125 261.03692383 76.5078125 255.59692383 76.5078125 C255.22567383 75.1259375 254.85442383 73.7440625 254.47192383 72.3203125 C252.82567209 67.365953 250.94494712 65.34733791 246.59692383 62.5078125 C243.48595414 61.47774394 240.61506612 61.38205222 237.35095692 61.38032055 C236.28262397 61.3773129 235.21429102 61.37430525 234.11358434 61.37120646 C232.9407446 61.37295683 231.76790487 61.37470721 230.55952454 61.37651062 C229.31288991 61.37439491 228.06625528 61.37227919 226.78184384 61.37009937 C224.04267295 61.36550267 221.30352465 61.36408144 218.56435013 61.36506462 C214.10743064 61.36665738 209.65053358 61.36145524 205.19361877 61.35543823 C198.72212544 61.34732434 192.25063605 61.34238106 185.77913857 61.33914757 C175.54782579 61.33365008 165.31654634 61.31675141 155.08525085 61.29780579 C151.58458811 61.29144896 148.08392527 61.28514053 144.58326244 61.27882862 C143.70838178 61.27724486 142.83350111 61.2756611 141.93210891 61.27402934 C131.97215703 61.25609111 122.0122028 61.23986581 112.05224609 61.22485352 C111.14174077 61.22347764 110.23123545 61.22210177 109.29313906 61.22068421 C94.54286169 61.19876078 79.79259289 61.18799957 65.04230211 61.18048277 C49.89653731 61.17240871 34.75084604 61.14910863 19.60512322 61.1125291 C10.26455767 61.0905154 0.92414334 61.08083599 -8.41644684 61.08702943 C-14.82021177 61.09020665 -21.22384767 61.0788566 -27.62757268 61.05613502 C-31.32086856 61.04348127 -35.01387694 61.03728019 -38.70718384 61.04855156 C-42.71529845 61.06062625 -46.72268485 61.04177837 -50.73075867 61.02006531 C-52.47328786 61.03272911 -52.47328786 61.03272911 -54.25101966 61.04564875 C-61.19198845 60.97612883 -66.33552737 59.91851462 -72.40307617 56.5078125 C-73.5999707 55.83878906 -73.5999707 55.83878906 -74.82104492 55.15625 C-81.69334155 50.21062373 -86.52975905 43.01995094 -88.15307617 34.6328125 C-89.48457228 23.31509555 -87.23997681 15.32721053 -80.17260742 6.36328125 C-72.29871054 -1.89301239 -63.45768711 -3.78677716 -52.47729492 -4.1171875 C-51.41630081 -4.15078369 -50.3553067 -4.18437988 -49.26216125 -4.21899414 C-47.01558375 -4.2847172 -44.76883802 -4.34489283 -42.52197266 -4.39990234 C-39.13883871 -4.49088951 -35.75926866 -4.6257931 -32.37768555 -4.76171875 C-20.67654541 -5.12053632 -10.81753545 -4.71038694 0 0 Z " fill="#38406F" transform="translate(160.403076171875,235.4921875)"/>
<path d="M0 0 C1.25335648 -0.0112088 2.50671295 -0.0224176 3.79804993 -0.03396606 C5.17929541 -0.0210561 6.56053626 -0.00764202 7.94177246 0.00622559 C9.40236556 0.00272308 10.86295485 -0.00293697 12.3235321 -0.0105896 C16.28444302 -0.02482899 20.24465901 -0.00778496 24.20550346 0.01569557 C28.35249436 0.03581408 32.49945667 0.0299245 36.64648438 0.02758789 C43.61042735 0.02764145 50.5740989 0.04739183 57.53796387 0.07946777 C65.58658225 0.11636019 73.63484511 0.12514323 81.68353701 0.11817026 C89.4293882 0.11186269 97.1751176 0.12262425 104.92094421 0.14213562 C108.21589393 0.15030552 111.51078136 0.15301992 114.80574036 0.15144348 C118.68659242 0.15056384 122.56710719 0.16480184 126.44787025 0.19067001 C127.87125831 0.19782561 129.29468227 0.19991834 130.71808434 0.19655228 C132.6625838 0.19283137 134.60709037 0.20944302 136.55151367 0.22705078 C138.18302494 0.23264385 138.18302494 0.23264385 139.84749603 0.23834991 C143.2168296 0.67916637 145.09891006 1.54464226 147.77575684 3.62145996 C148.94756597 7.57631579 149.18057013 9.69038938 147.52575684 13.49645996 C145.77575684 15.62145996 145.77575684 15.62145996 142.77575684 16.62145996 C140.78077569 16.71911358 138.78265592 16.75645504 136.78529358 16.76190186 C135.53324127 16.767612 134.28118896 16.77332214 132.99119568 16.77920532 C131.60110484 16.78045065 130.21101388 16.78157575 128.82092285 16.78259277 C127.35900751 16.78722134 125.89709339 16.79224605 124.43518066 16.79763794 C120.46207641 16.81075818 116.48898905 16.81720588 112.51586652 16.8216486 C110.03449542 16.82457925 107.55312895 16.828684 105.07176018 16.83315277 C97.31046907 16.84682522 89.54918852 16.85649375 81.7878862 16.86035466 C72.8237996 16.86483831 63.85986526 16.88240141 54.89582497 16.91135526 C47.96921683 16.93295311 41.04265159 16.94305789 34.11601013 16.94439578 C29.97767182 16.94544495 25.83947669 16.95137675 21.70117378 16.96921539 C17.80974702 16.98566393 13.91857158 16.9878674 10.0271225 16.97907639 C8.59845495 16.97830434 7.16977407 16.98267077 5.74114037 16.99253464 C3.79186897 17.00520472 1.84249711 16.99760365 -0.10679626 16.98895264 C-1.19798987 16.9904192 -2.28918348 16.99188576 -3.41344357 16.99339676 C-6.57884199 16.57453796 -7.93724812 15.80828729 -10.22424316 13.62145996 C-11.00939941 11.75427246 -11.00939941 11.75427246 -11.28674316 9.74645996 C-11.40146973 9.08903809 -11.51619629 8.43161621 -11.63439941 7.75427246 C-10.4772745 1.7372229 -5.46540335 -0.00358025 0 0 Z " fill="#7C7BD9" transform="translate(163.2242431640625,407.3785400390625)"/>
<path d="M0 0 C0.66 0 1.32 0 2 0 C2.66 2.97 3.32 5.94 4 9 C4.66 9 5.32 9 6 9 C6.33492714 9.91415176 6.33492714 9.91415176 6.67662048 10.84677124 C8.99484195 17.17342813 11.31469084 23.49948651 13.63549805 29.82519531 C14.50212945 32.18799686 15.36834175 34.55095218 16.23413086 36.9140625 C17.47660683 40.30509023 18.72057489 43.69556729 19.96484375 47.0859375 C20.35341049 48.14743011 20.74197723 49.20892273 21.14231873 50.30258179 C21.50261673 51.28344757 21.86291473 52.26431335 22.23413086 53.27490234 C22.55167831 54.14094086 22.86922577 55.00697937 23.19639587 55.89926147 C23.96550713 58.01278921 23.96550713 58.01278921 25 60 C25.6021891 64.59645605 26.06807191 69.11033432 23.73046875 73.24609375 C21.66452597 75.66390027 19.85738098 77.57130951 17 79 C12.52473478 79.30593682 8.04599024 79.35641052 3.56176758 79.4050293 C2.07097118 79.42655062 0.58029915 79.46058488 -0.90991211 79.50756836 C-14.87900502 79.94366603 -14.87900502 79.94366603 -19.45703125 76.09765625 C-23.09951902 72.16702157 -23.53073269 68.87921366 -23.47753906 63.61132812 C-22.40053888 55.46665189 -18.8696328 47.8498244 -15.875 40.25 C-15.20146915 38.50063663 -14.52958244 36.75063931 -13.859375 35 C-10.00244709 24.96204045 -6.01590387 14.97524397 -2 5 C-1.33289933 3.333507 -0.66606256 1.66690818 0 0 Z " fill="#ED9B51" transform="translate(479,153)"/>
<path d="M0 0 C26.4 0 52.8 0 80 0 C80 7.92 80 15.84 80 24 C53.6 24 27.2 24 0 24 C0 16.08 0 8.16 0 0 Z " fill="#FBC268" transform="translate(384,384)"/>
<path d="M0 0 C21.12 0 42.24 0 64 0 C64 7.92 64 15.84 64 24 C42.88 24 21.76 24 0 24 C0 16.08 0 8.16 0 0 Z " fill="#FCEEE0" transform="translate(384,360)"/>
<path d="M0 0 C1.9296308 0.03516375 3.85932339 0.06709381 5.7890625 0.09570312 C10.48716345 0.16633609 15.17658409 0.3033204 19.875 0.4375 C19.875 8.3575 19.875 16.2775 19.875 24.4375 C-10.815 24.4375 -41.505 24.4375 -73.125 24.4375 C-73.125 24.1075 -73.125 23.7775 -73.125 23.4375 C-72.47015625 23.26734375 -71.8153125 23.0971875 -71.140625 22.921875 C-68.12702427 22.12165334 -65.12501091 21.28725679 -62.125 20.4375 C-61.22265625 20.18226563 -60.3203125 19.92703125 -59.390625 19.6640625 C-52.85778865 17.65253944 -46.6892282 15.00064414 -40.5 12.125 C-39.72462891 11.77034668 -38.94925781 11.41569336 -38.15039062 11.05029297 C-33.32583367 8.76487712 -33.32583367 8.76487712 -29.05615234 5.59985352 C-20.56977408 -1.84812705 -10.63224219 -0.33748818 0 0 Z " fill="#38406E" transform="translate(412.125,215.5625)"/>
<path d="M0 0 C0.81027649 -0.00073013 1.62055298 -0.00146027 2.4553833 -0.00221252 C5.12353343 0.00126046 7.78992 0.04010592 10.45776367 0.0793457 C12.31148831 0.08867491 14.16522529 0.09579051 16.01896667 0.1007843 C20.89039335 0.11984571 25.76107083 0.1689391 30.63220215 0.2243042 C35.60585394 0.27551519 40.57962717 0.29830229 45.5534668 0.32348633 C55.3070506 0.37705868 65.06007913 0.46236113 74.81323242 0.56762695 C73.83066142 8.34861861 73.83066142 8.34861861 71.12573242 11.38012695 C70.40836914 12.22510742 70.40836914 12.22510742 69.67651367 13.0871582 C65.26614515 16.59141328 60.21294788 16.82169759 54.76977539 16.84228516 C54.09257446 16.84739609 53.41537354 16.85250702 52.71765137 16.85777283 C50.49681574 16.87158442 48.27629317 16.87071927 46.05541992 16.8684082 C44.5041594 16.87229826 42.95289994 16.87663356 41.40164185 16.88139343 C38.1587579 16.88883633 34.91598289 16.88857731 31.6730957 16.88330078 C27.51905301 16.87749221 23.36545417 16.89447955 19.21148491 16.91764545 C16.01158039 16.93237561 12.81178316 16.93325578 9.61185074 16.93013573 C8.08005007 16.93064876 6.54824337 16.93588321 5.01647568 16.94594765 C2.87665587 16.95828865 0.73770632 16.95153671 -1.40209961 16.93994141 C-2.61866241 16.94057083 -3.83522522 16.94120026 -5.08865356 16.94184875 C-8.43651304 16.53746015 -9.80464843 15.90342252 -12.18676758 13.56762695 C-12.97192383 11.70043945 -12.97192383 11.70043945 -13.24926758 9.69262695 C-13.36399414 9.03520508 -13.4787207 8.3777832 -13.59692383 7.70043945 C-12.24235638 0.65668872 -6.05310727 -0.14352716 0 0 Z " fill="#545EA2" transform="translate(341.186767578125,407.432373046875)"/>
<path d="M0 0 C0.66 0 1.32 0 2 0 C2.66 2.97 3.32 5.94 4 9 C4.66 9 5.32 9 6 9 C11.61 24.18 17.22 39.36 23 55 C17.04761905 62.14285714 17.04761905 62.14285714 12 63 C5.47576448 63.27004286 1.22152277 62.19273715 -3.625 57.765625 C-7.41981977 52.89273143 -7.09321903 48.61281066 -6.48486328 42.76757812 C-5.4516106 34.73879901 -4.20019079 26.74534355 -2.9375 18.75 C-2.65260702 16.92584177 -2.36809886 15.10162339 -2.08398438 13.27734375 C-1.39375456 8.85085708 -0.69833238 4.42521532 0 0 Z " fill="#FAB152" transform="translate(479,153)"/>
<path d="M0 0 C26.4 0 52.8 0 80 0 C80 7.92 80 15.84 80 24 C74.72 24 69.44 24 64 24 C63.62875 22.618125 63.2575 21.23625 62.875 19.8125 C61.22874826 14.8581405 59.34802329 12.83952541 55 10 C51.93814632 8.99789111 49.07401496 8.85029234 45.86425781 8.79467773 C44.84350159 8.77473251 43.82274536 8.75478729 42.77105713 8.73423767 C41.67613953 8.71752518 40.58122192 8.70081268 39.453125 8.68359375 C38.3267865 8.66281265 37.200448 8.64203156 36.03997803 8.62062073 C32.44338051 8.55525667 28.84671023 8.49630115 25.25 8.4375 C22.8111904 8.3943023 20.37238816 8.3506876 17.93359375 8.30664062 C11.955806 8.1995887 5.97794593 8.09779783 0 8 C0 5.36 0 2.72 0 0 Z " fill="#ED9B52" transform="translate(384,384)"/>
<path d="M0 0 C20.13 0 40.26 0 61 0 C58.74257426 10.15841584 58.74257426 10.15841584 55.625 12.5 C55.03976562 12.9640625 54.45453125 13.428125 53.8515625 13.90625 C50.40318221 15.94326789 47.0845445 16.1239067 43.13964844 16.11352539 C42.17895447 16.11344986 41.2182605 16.11337433 40.22845459 16.11329651 C39.19915833 16.10813522 38.16986206 16.10297394 37.109375 16.09765625 C36.04962463 16.0962413 34.98987427 16.09482635 33.89801025 16.09336853 C30.51531138 16.08777382 27.13267885 16.07522225 23.75 16.0625 C21.45573012 16.05748432 19.16145921 16.05292153 16.8671875 16.04882812 C11.24476906 16.03780611 5.62238927 16.02107321 0 16 C0.6496875 15.236875 1.299375 14.47375 1.96875 13.6875 C4.21333691 11.14943671 4.21333691 11.14943671 4.5 8 C4.14121145 4.34315282 4.14121145 4.34315282 0 0 Z " fill="#FBC268" transform="translate(387,312)"/>
<path d="M0 0 C2.99713099 1.40180905 5.57319526 3.04404188 8.23046875 5.01171875 C9.03419922 5.60533203 9.83792969 6.19894531 10.66601562 6.81054688 C11.49810547 7.42994141 12.33019531 8.04933594 13.1875 8.6875 C14.00025391 9.28755859 14.81300781 9.88761719 15.65039062 10.50585938 C19.83031344 13.60172902 23.98514198 16.72992086 28.11328125 19.89453125 C28.86005127 20.4666333 29.60682129 21.03873535 30.3762207 21.62817383 C30.91206787 22.08087646 31.44791504 22.5335791 32 23 C32 23.33 32 23.66 32 24 C11.54 24 -8.92 24 -30 24 C-26.66058428 20.66058428 -23.75616929 17.90790557 -20.05859375 15.1171875 C-19.14529297 14.42496094 -18.23199219 13.73273438 -17.29101562 13.01953125 C-16.34935547 12.31183594 -15.40769531 11.60414063 -14.4375 10.875 C-13.49197266 10.15957031 -12.54644531 9.44414062 -11.57226562 8.70703125 C-7.72181182 5.79538067 -3.86264179 2.89545537 0 0 Z " fill="#FBC169" transform="translate(351,384)"/>
<path d="M0 0 C1.16080078 0.02255859 2.32160156 0.04511719 3.51757812 0.06835938 C6.36723166 0.12699422 9.2141815 0.20901163 12.0625 0.3125 C11.29495458 7.85250497 11.29495458 7.85250497 8.375 11.125 C7.65763672 11.96998047 7.65763672 11.96998047 6.92578125 12.83203125 C1.96137961 16.77649293 -3.81834783 16.58543586 -9.8359375 16.5078125 C-11.08837753 16.50356766 -11.08837753 16.50356766 -12.36611938 16.49923706 C-15.01506291 16.48810301 -17.66365984 16.46301127 -20.3125 16.4375 C-22.11588051 16.42746143 -23.91926636 16.41833712 -25.72265625 16.41015625 C-30.12773633 16.3881859 -34.53255953 16.35370321 -38.9375 16.3125 C-34.80658964 13.11280921 -30.32517733 10.81619801 -25.68945312 8.44921875 C-22.37322136 6.7222247 -19.59140095 5.02768991 -16.765625 2.57421875 C-11.79465015 -1.08394672 -5.89622699 -0.21788218 0 0 Z " fill="#545EA1" transform="translate(403.9375,215.6875)"/>
<path d="M0 0 C0 24.09 0 48.18 0 73 C-2.12508244 69.81237635 -2.5020163 67.73487777 -3 64 C-3.66 64 -4.32 64 -5 64 C-5.12375 64.763125 -5.2475 65.52625 -5.375 66.3125 C-6 69 -6 69 -8 72 C-8 49.23 -8 26.46 -8 3 C-1 0 -1 0 0 0 Z " fill="#393D48" transform="translate(484,89)"/>
<path d="M0 0 C0.93714844 -0.00257813 1.87429688 -0.00515625 2.83984375 -0.0078125 C11.66104117 0.11731087 11.66104117 0.11731087 15.5 3.5 C16.67180914 7.45485583 16.9048133 9.56892942 15.25 13.375 C13.5 15.5 13.5 15.5 10.5 16.5 C7.02517506 16.75394579 3.54564065 16.73126084 0.0625 16.75 C-1.36932617 16.7809375 -1.36932617 16.7809375 -2.83007812 16.8125 C-3.75111328 16.81765625 -4.67214844 16.8228125 -5.62109375 16.828125 C-6.4608374 16.8374707 -7.30058105 16.84681641 -8.16577148 16.85644531 C-11.0252817 16.41978755 -12.38411115 15.43640556 -14.5 13.5 C-15.28515625 11.6328125 -15.28515625 11.6328125 -15.5625 9.625 C-15.67722656 8.96757812 -15.79195313 8.31015625 -15.91015625 7.6328125 C-14.31531979 -0.66033708 -6.69368514 -0.20255994 0 0 Z " fill="#7C7BD9" transform="translate(343.5,407.5)"/>
<path d="M0 0 C8.91 0 17.82 0 27 0 C25.68 1.65 24.36 3.3 23 5 C22.60782642 8.0158701 23.26387057 9.95733168 24 13 C24.99 13.99 25.98 14.98 27 16 C18.09 16 9.18 16 0 16 C1.32 15.01 2.64 14.02 4 13 C4.76172561 11.07736524 4.76172561 11.07736524 4.875 9 C4.95492188 8.319375 5.03484375 7.63875 5.1171875 6.9375 C5.1431693 4.66934488 5.1431693 4.66934488 3 2 C2.01 1.34 1.02 0.68 0 0 Z " fill="#555FA3" transform="translate(306,408)"/>
<path d="M0 0 C8.58 0 17.16 0 26 0 C24.68 1.65 23.36 3.3 22 5 C21.33333333 8 21.33333333 8 22 11 C23.32 12.65 24.64 14.3 26 16 C17.42 16 8.84 16 0 16 C1.32 14.35 2.64 12.7 4 11 C4.66666667 8 4.66666667 8 4 5 C2.68 3.35 1.36 1.7 0 0 Z " fill="#FCC369" transform="translate(339,312)"/>
<path d="M0 0 C4.00301032 1.76132454 7.6028977 4.26132483 11 7 C11 7.33 11 7.66 11 8 C4.4 8 -2.2 8 -9 8 C-3.375 2.375 -3.375 2.375 0 0 Z " fill="#EC9753" transform="translate(351,384)"/>
</svg>
